<svg xmlns="http://www.w3.org/2000/svg" viewBox="0 0 512 512">
  <defs>
    <linearGradient id="gold" x1="0%" y1="0%" x2="100%" y2="100%">
      <stop offset="0%" style="stop-color:#e8c547"/>
      <stop offset="50%" style="stop-color:#c9a84c"/>
      <stop offset="100%" style="stop-color:#a88a2e"/>
    </linearGradient>
  </defs>
  <!-- Background circle -->
  <circle cx="256" cy="256" r="240" fill="#0a0a0a" stroke="url(#gold)" stroke-width="12"/>
  <!-- Trophy body -->
  <path d="M196 160h120v100c0 44-26.8 80-60 80s-60-36-60-80z" fill="url(#gold)"/>
  <!-- Left handle -->
  <path d="M196 180h-20c-28 0-50 22-50 50s22 50 50 50h20" fill="none" stroke="url(#gold)" stroke-width="16" stroke-linecap="round"/>
  <!-- Right handle -->
  <path d="M316 180h20c28 0 50 22 50 50s-22 50-50 50h-20" fill="none" stroke="url(#gold)" stroke-width="16" stroke-linecap="round"/>
  <!-- Base -->
  <rect x="226" y="340" width="60" height="20" rx="4" fill="url(#gold)"/>
  <rect x="206" y="356" width="100" height="16" rx="4" fill="url(#gold)"/>
  <!-- mimzy text -->
  <text x="256" y="270" text-anchor="middle" font-family="Arial Black,Arial,sans-serif" font-weight="900" font-size="44" fill="#0a0a0a" letter-spacing="-1">mimzy</text>
</svg>
